<svg version="1.1" xmlns="http://www.w3.org/2000/svg" viewBox="-2913.539254063353 -1157.1200439453125 11792.64336020349 2729.7280517578124"><desc>Created with Snap</desc><defs></defs><g><g transform="matrix(24.6438,0,0,24.6438,-2651.5853,-1016.2413)"><g><path d="M75.273,25.39v-9.021l-10.967-9.62V25.39h-29.09V6.749l-10.969,9.62v9.021H1.836v39.608v3.414   c0,0.988,0.104,2.078,0.297,3.227c-0.193-0.939-0.297-1.908-0.297-2.898v6.469v3.426c0,7.844,6.107,13.949,13.951,13.949h10.156   h24.354h24.166h0.189h9.584c7.844,0,13.928-6.105,13.928-13.949V25.39H75.273z M58.752,69.469   c-5.544,4.234-6.998,7.033-8.744,8.781c-1.762-1.748-3.293-4.451-8.76-8.781c-5.263-4.158-12.26-9.684-12.26-17.42   c0-11.446,14.006-15.815,21.02-5.313C57,36.234,71.011,40.603,71.011,51.963C71.011,59.692,64.098,65.397,58.752,69.469z" style="" fill="#6daedb"></path><rect x="36.5" y="6.792" width="26.625" height="8.583" style="" fill="#6daedb"></rect></g><desc>Created with Snap</desc><defs></defs></g><g><g transform="matrix(1.024,0,0,-1.024,0,0)"><path d="M629 213L665 189Q630 136 596 98Q563 60 527 36Q491 12 451 1Q411 -10 365 -10Q297 -10 243 11Q189 33 151 73Q114 114 93 171Q73 229 73 301Q73 396 108 482Q143 569 201 635Q260 701 337 740Q414 780 498 780Q546 780 589 765Q633 751 678 720L715 770L752 770L706 519L668 519Q660 628 621 678Q583 728 506 728Q440 728 383 695Q326 662 284 604Q242 546 218 468Q194 390 194 300Q194 52 387 52Q459 52 517 91Q576 130 629 213ZM915 -10Q881 -10 851 3Q822 17 800 43Q778 69 765 106Q752 144 752 191Q752 256 776 319Q801 382 841 431Q881 480 932 510Q984 540 1039 540Q1075 540 1105 526Q1136 513 1157 487Q1179 462 1191 426Q1204 391 1204 348Q1204 285 1179 221Q1154 157 1113 106Q1073 55 1021 22Q969 -10 915 -10ZM921 40Q955 40 988 75Q1022 110 1048 163Q1075 217 1091 280Q1108 343 1108 400Q1108 453 1089 473Q1071 493 1039 493Q1017 493 994 477Q972 462 952 435Q932 408 914 373Q897 338 884 299Q871 260 864 219Q857 179 857 142Q857 86 875 63Q893 40 921 40ZM1420 62Q1436 62 1462 84Q1488 107 1517 144Q1546 182 1573 230Q1601 278 1620 330L1694 530L1787 530L1713 301Q1697 251 1686 215Q1675 180 1668 155Q1661 131 1658 115Q1655 100 1655 91Q1655 65 1673 65Q1683 65 1697 74Q1711 84 1725 100Q1740 117 1753 137Q1767 158 1777 181L1807 166Q1794 133 1773 101Q1752 70 1727 45Q1703 20 1676 5Q1649 -10 1623 -10Q1592 -10 1581 12Q1570 34 1570 75Q1570 92 1571 111Q1573 131 1577 150L1574 153Q1547 105 1521 74Q1496 43 1472 24Q1448 5 1425 -3Q1402 -10 1380 -10Q1333 -10 1314 16Q1296 42 1296 80Q1296 122 1312 172Q1328 223 1346 268Q1364 313 1376 344Q1389 375 1396 396Q1404 417 1407 430Q1411 443 1411 451Q1411 455 1409 458Q1408 462 1402 462Q1389 462 1364 439Q1340 416 1298 365L1272 379Q1287 408 1310 437Q1333 466 1359 489Q1385 512 1413 526Q1441 540 1465 540Q1515 540 1515 482Q1515 447 1495 391Q1476 336 1445 259Q1425 210 1412 171Q1399 132 1399 100Q1399 79 1405 70Q1411 62 1420 62ZM1886 347L1859 375Q1896 417 1942 450Q1988 484 2039 505L2086 665L2162 665L2127 532Q2143 535 2158 537Q2174 539 2190 539Q2275 539 2322 493Q2369 447 2369 364Q2369 298 2337 239Q2306 181 2253 135Q2201 89 2132 58Q2064 28 1990 18L1953 -121Q1948 -136 1946 -146Q1945 -156 1945 -164Q1945 -189 1965 -199Q1986 -209 2038 -210L2032 -250L1749 -250L1755 -210Q1797 -210 1816 -200Q1835 -190 1843 -164L2024 454Q1986 434 1951 406Q1916 379 1886 347ZM2164 490Q2151 490 2138 488Q2126 487 2114 485L2001 61Q2051 71 2098 98Q2146 125 2183 165Q2220 205 2242 254Q2265 304 2265 358Q2265 418 2237 454Q2210 490 2164 490ZM2594 -10Q2560 -10 2530 3Q2501 17 2479 43Q2457 69 2444 106Q2431 144 2431 191Q2431 256 2455 319Q2480 382 2520 431Q2560 480 2611 510Q2663 540 2718 540Q2754 540 2784 526Q2815 513 2836 487Q2858 462 2870 426Q2883 391 2883 348Q2883 285 2858 221Q2833 157 2792 106Q2752 55 2700 22Q2648 -10 2594 -10ZM2600 40Q2634 40 2667 75Q2701 110 2727 163Q2754 217 2770 280Q2787 343 2787 400Q2787 453 2768 473Q2750 493 2718 493Q2696 493 2673 477Q2651 462 2631 435Q2611 408 2593 373Q2576 338 2563 299Q2550 260 2543 219Q2536 179 2536 142Q2536 86 2554 63Q2572 40 2600 40ZM3355 488Q3331 488 3300 463Q3270 439 3238 398Q3207 358 3178 306Q3149 254 3129 200L3055 0L2967 0L3041 229Q3059 284 3071 323Q3083 362 3090 388Q3098 415 3101 431Q3104 448 3104 458Q3104 485 3087 485Q3076 485 3061 471Q3046 457 3030 434Q3015 412 3001 383Q2987 354 2977 324L2947 339Q2982 442 3025 491Q3069 540 3125 540Q3157 540 3170 522Q3184 504 3184 461Q3184 410 3167 370L3170 367Q3221 457 3273 498Q3326 540 3388 540Q3432 540 3455 519Q3478 498 3478 459Q3478 446 3475 430Q3473 414 3467 391Q3461 369 3450 338Q3440 307 3425 262Q3402 194 3387 148Q3372 102 3372 83Q3372 68 3382 68Q3396 68 3423 91Q3450 114 3496 165L3522 151Q3506 121 3480 92Q3455 64 3427 41Q3400 18 3373 4Q3346 -10 3326 -10Q3301 -10 3286 12Q3272 34 3272 70Q3272 84 3274 98Q3277 113 3285 140Q3293 167 3308 212Q3324 258 3351 333Q3360 359 3366 377Q3372 395 3375 408Q3379 422 3380 432Q3382 442 3382 451Q3382 488 3355 488ZM3634 387Q3634 420 3646 448Q3659 476 3681 496Q3703 517 3733 528Q3764 540 3800 540Q3848 540 3880 516Q3912 492 3912 454Q3912 433 3900 421Q3889 409 3869 409Q3846 409 3836 422Q3826 436 3819 452Q3812 469 3804 483Q3796 497 3777 497Q3755 497 3740 478Q3725 459 3725 431Q3725 398 3744 369Q3764 341 3788 310Q3812 279 3831 242Q3851 205 3851 155Q3851 121 3836 91Q3822 61 3797 38Q3773 16 3741 3Q3709 -10 3675 -10Q3615 -10 3579 16Q3544 42 3544 84Q3544 113 3557 129Q3571 146 3594 146Q3637 146 3643 87Q3646 55 3653 44Q3661 34 3684 34Q3720 34 3741 55Q3762 77 3762 115Q3762 155 3742 186Q3722 217 3698 246Q3674 276 3654 309Q3634 342 3634 387ZM4270 488Q4232 488 4191 453Q4151 418 4118 365Q4085 313 4064 252Q4043 192 4043 140Q4043 104 4058 82Q4073 61 4099 61Q4122 61 4147 79Q4172 98 4195 128Q4219 159 4240 198Q4261 237 4277 278Q4293 320 4302 360Q4311 400 4311 432Q4311 458 4300 473Q4289 488 4270 488ZM4352 474L4373 530L4456 530L4399 377Q4385 339 4371 296Q4358 253 4347 213Q4337 173 4331 140Q4325 107 4325 91Q4325 62 4344 62Q4358 62 4384 91Q4411 120 4444 166L4470 145Q4428 71 4379 30Q4331 -10 4286 -10Q4263 -10 4250 7Q4238 25 4238 65Q4238 74 4238 86Q4239 98 4241 118L4237 119Q4222 91 4201 67Q4181 44 4157 26Q4133 9 4107 -1Q4081 -10 4056 -10Q4005 -10 3976 28Q3948 67 3948 135Q3948 204 3977 276Q4006 348 4052 406Q4098 465 4154 502Q4210 540 4264 540Q4297 540 4318 524Q4339 509 4352 474ZM4933 488Q4909 488 4878 463Q4848 439 4816 398Q4785 358 4756 306Q4727 254 4707 200L4633 0L4545 0L4619 229Q4637 284 4649 323Q4661 362 4668 388Q4676 415 4679 431Q4682 448 4682 458Q4682 485 4665 485Q4654 485 4639 471Q4624 457 4608 434Q4593 412 4579 383Q4565 354 4555 324L4525 339Q4560 442 4603 491Q4647 540 4703 540Q4735 540 4748 522Q4762 504 4762 461Q4762 410 4745 370L4748 367Q4799 457 4851 498Q4904 540 4966 540Q5010 540 5033 519Q5056 498 5056 459Q5056 446 5053 430Q5051 414 5045 391Q5039 369 5028 338Q5018 307 5003 262Q4980 194 4965 148Q4950 102 4950 83Q4950 68 4960 68Q4974 68 5001 91Q5028 114 5074 165L5100 151Q5084 121 5058 92Q5033 64 5005 41Q4978 18 4951 4Q4924 -10 4904 -10Q4879 -10 4864 12Q4850 34 4850 70Q4850 84 4852 98Q4855 113 4863 140Q4871 167 4886 212Q4902 258 4929 333Q4938 359 4944 377Q4950 395 4953 408Q4957 422 4958 432Q4960 442 4960 451Q4960 488 4933 488ZM5545 486L5603 692Q5611 719 5615 737Q5619 755 5619 763Q5619 778 5599 784Q5579 790 5527 790L5538 830L5731 830L5620 425Q5599 347 5585 292Q5571 237 5562 199Q5554 162 5551 138Q5548 114 5548 98Q5548 75 5555 66Q5562 57 5573 57Q5595 57 5620 94Q5646 131 5666 191L5704 182Q5670 83 5629 36Q5589 -10 5538 -10Q5502 -10 5482 13Q5463 36 5463 79Q5463 90 5465 102Q5467 114 5470 125L5462 127Q5424 61 5370 25Q5316 -10 5267 -10Q5241 -10 5219 1Q5197 13 5181 33Q5165 54 5155 82Q5146 111 5146 146Q5146 189 5159 235Q5173 282 5196 325Q5220 369 5251 408Q5282 447 5316 476Q5351 506 5387 523Q5424 540 5459 540Q5493 540 5510 527Q5528 514 5545 486ZM5466 487Q5440 487 5413 470Q5387 454 5362 426Q5337 399 5315 363Q5294 327 5278 288Q5262 249 5252 209Q5243 169 5243 134Q5243 98 5261 76Q5279 55 5309 55Q5332 55 5356 73Q5380 92 5403 122Q5426 152 5446 190Q5467 229 5482 269Q5498 310 5507 349Q5516 389 5516 421Q5516 452 5504 469Q5492 487 5466 487ZM6238 780Q6302 780 6353 758Q6405 736 6441 695Q6478 655 6497 597Q6517 540 6517 469Q6517 373 6482 286Q6448 199 6389 133Q6330 67 6252 28Q6175 -10 6089 -10Q6025 -10 5973 12Q5921 35 5884 76Q5847 117 5827 174Q5807 232 5807 303Q5807 399 5842 485Q5877 572 5936 637Q5995 703 6073 741Q6152 780 6238 780ZM6238 728Q6173 728 6116 695Q6060 662 6018 604Q5976 546 5952 468Q5928 390 5928 300Q5928 172 5972 108Q6017 44 6103 44Q6166 44 6219 78Q6273 112 6312 172Q6352 232 6374 315Q6396 398 6396 496Q6396 616 6357 672Q6319 728 6238 728ZM6799 450L6705 73Q6679 -29 6653 -94Q6627 -158 6597 -195Q6567 -232 6532 -246Q6498 -260 6455 -260Q6413 -260 6386 -238Q6359 -216 6359 -184Q6359 -159 6372 -145Q6385 -130 6408 -130Q6429 -130 6437 -141Q6445 -152 6450 -165Q6456 -178 6463 -189Q6470 -200 6490 -200Q6513 -200 6532 -176Q6551 -152 6561 -113L6706 450L6610 450L6623 496L6718 496Q6740 586 6766 649Q6792 712 6822 752Q6852 793 6886 811Q6920 830 6959 830Q7018 830 7056 805Q7094 781 7094 744Q7094 721 7081 705Q7069 689 7046 689Q7027 689 7016 696Q7006 703 7000 714Q6995 725 6992 737Q6990 749 6986 760Q6982 771 6974 778Q6966 785 6950 785Q6930 785 6910 763Q6891 742 6873 703Q6855 665 6839 612Q6823 559 6810 496L6911 496L6897 450L6799 450ZM7133 450L7039 73Q7013 -29 6987 -94Q6961 -158 6931 -195Q6901 -232 6866 -246Q6832 -260 6789 -260Q6747 -260 6720 -238Q6693 -216 6693 -184Q6693 -159 6706 -145Q6719 -130 6742 -130Q6763 -130 6771 -141Q6779 -152 6784 -165Q6790 -178 6797 -189Q6804 -200 6824 -200Q6847 -200 6866 -176Q6885 -152 6895 -113L7040 450L6944 450L6957 496L7052 496Q7074 586 7100 649Q7126 712 7156 752Q7186 793 7220 811Q7254 830 7293 830Q7352 830 7390 805Q7428 781 7428 744Q7428 721 7415 705Q7403 689 7380 689Q7361 689 7350 696Q7340 703 7334 714Q7329 725 7326 737Q7324 749 7320 760Q7316 771 7308 778Q7300 785 7284 785Q7264 785 7244 763Q7225 742 7207 703Q7189 665 7173 612Q7157 559 7144 496L7245 496L7231 450L7133 450ZM7560 154L7592 133Q7505 -10 7378 -10Q7309 -10 7272 32Q7235 75 7235 153Q7235 222 7263 291Q7292 360 7338 415Q7384 471 7441 505Q7498 540 7555 540Q7603 540 7633 515Q7664 491 7664 453Q7664 418 7638 381Q7612 344 7567 311Q7523 278 7463 251Q7404 224 7337 209Q7335 195 7334 181Q7333 168 7333 154Q7333 45 7410 45Q7447 45 7486 74Q7526 103 7560 154ZM7535 493Q7509 493 7481 473Q7453 453 7427 419Q7402 386 7381 343Q7360 300 7347 254Q7395 267 7436 288Q7477 309 7506 335Q7536 362 7553 391Q7570 421 7570 451Q7570 493 7535 493ZM7724 378L7698 391Q7709 416 7731 442Q7754 469 7780 490Q7807 512 7834 526Q7861 540 7881 540Q7905 540 7916 522Q7927 504 7927 464Q7927 448 7925 433Q7924 418 7920 398L7923 395Q7935 424 7957 452Q7979 480 8004 501Q8030 523 8056 536Q8083 550 8106 550Q8135 550 8154 531Q8174 513 8174 486Q8174 460 8157 443Q8141 426 8115 426Q8099 426 8089 432Q8080 438 8073 444Q8066 451 8060 457Q8054 463 8045 463Q8026 463 8001 437Q7976 412 7949 368Q7922 324 7895 265Q7869 206 7847 138L7802 0L7709 0L7774 207Q7793 267 7805 306Q7818 346 7825 372Q7832 399 7834 414Q7837 429 7837 440Q7837 462 7822 462Q7812 462 7797 454Q7783 446 7769 434Q7755 422 7742 407Q7730 392 7724 378Z" style="" fill="#173753"></path></g></g><g transform="matrix(0.75,0,0,0.75,41.728,1101.824)"><g transform="matrix(1.024,0,0,-1.024,0,0)"><path d="M555 182Q555 105 499 52Q444 0 337 0L43 0L43 51L128 51L128 599L43 599L43 650L332 650Q433 650 480 607Q527 564 527 493Q527 440 496 401Q465 362 417 352L417 348Q488 337 521 290Q555 244 555 182ZM466 481Q466 547 430 573Q394 599 326 599L185 599L185 361L324 361Q382 361 424 391Q466 421 466 481ZM494 185Q494 243 460 278Q426 313 357 313L185 313L185 51L330 51Q403 51 448 82Q494 114 494 185ZM1138 46L1138 0L1000 0L1000 88Q979 44 938 17Q897 -10 843 -10Q777 -10 733 31Q689 72 689 163L689 397L607 397L607 444L744 444L744 176Q744 100 776 69Q809 39 859 39Q919 39 958 86Q998 133 1000 181L1000 397L902 397L902 444L1055 444L1055 46L1138 46ZM1651 444L1651 397L1595 397L1435 0L1370 -167L1451 -167L1451 -213L1231 -213L1231 -167L1317 -167L1381 3L1218 397L1163 397L1163 444L1363 444L1363 397L1276 397L1410 74L1416 74L1538 397L1457 397L1457 444L1651 444ZM2431 455Q2431 355 2372 302Q2313 249 2217 249L2083 249L2083 51L2198 51L2198 0L1941 0L1941 51L2026 51L2026 599L1941 599L1941 650L2211 650Q2332 650 2381 590Q2431 531 2431 455ZM2371 453Q2371 520 2331 559Q2291 599 2208 599L2083 599L2083 299L2212 299Q2286 299 2328 339Q2371 379 2371 453ZM2741 452Q2788 452 2814 429L2830 330L2784 324L2767 400Q2752 404 2733 404Q2689 404 2661 367Q2633 330 2633 273L2633 46L2742 46L2742 0L2495 0L2495 46L2578 46L2578 397L2494 397L2494 444L2630 444L2630 365Q2643 402 2674 427Q2705 452 2741 452ZM3348 222Q3348 122 3290 56Q3232 -10 3131 -10Q3031 -10 2975 55Q2920 121 2920 219Q2920 316 2975 384Q3030 453 3135 453Q3240 453 3294 384Q3348 316 3348 222ZM3289 223Q3289 301 3249 352Q3209 404 3133 404Q3057 404 3017 351Q2978 299 2978 222Q2978 146 3017 92Q3057 39 3133 39Q3209 39 3249 92Q3289 145 3289 223ZM3919 46L3919 0L3782 0L3782 92Q3760 52 3721 21Q3683 -10 3622 -10Q3537 -10 3484 48Q3431 106 3431 209Q3431 267 3450 323Q3470 379 3514 416Q3558 453 3632 453Q3679 453 3719 432Q3759 411 3782 371L3782 642L3670 642L3670 688L3837 688L3837 46L3919 46ZM3782 189L3782 276Q3780 331 3738 367Q3697 404 3641 404Q3559 404 3524 344Q3489 284 3489 213Q3489 128 3530 83Q3571 39 3633 39Q3695 39 3737 89Q3780 139 3782 189ZM4472 46L4472 0L4334 0L4334 88Q4313 44 4272 17Q4231 -10 4177 -10Q4111 -10 4067 31Q4023 72 4023 163L4023 397L3941 397L3941 444L4078 444L4078 176Q4078 100 4110 69Q4143 39 4193 39Q4253 39 4292 86Q4332 133 4334 181L4334 397L4236 397L4236 444L4389 444L4389 46L4472 46ZM4862 156L4909 145Q4899 87 4856 38Q4814 -10 4727 -10Q4636 -10 4583 50Q4530 110 4530 215Q4530 272 4551 327Q4572 382 4616 417Q4661 453 4731 453Q4822 453 4880 405L4896 306L4850 300L4833 375Q4792 404 4731 404Q4652 404 4620 347Q4589 291 4589 219Q4589 134 4626 86Q4663 39 4733 39Q4839 39 4862 156ZM5260 129L5303 115Q5283 -10 5168 -10Q5103 -10 5070 28Q5038 66 5038 130L5038 397L4965 397L4965 444L5038 444L5038 588L5093 588L5093 444L5270 444L5270 397L5093 397L5093 136Q5093 92 5111 65Q5129 39 5174 39Q5203 39 5226 56Q5249 74 5260 129ZM5700 126Q5700 64 5647 27Q5595 -10 5518 -10Q5471 -10 5425 3Q5380 17 5356 34L5368 128L5413 124L5409 64Q5456 39 5516 39Q5565 39 5604 58Q5644 78 5644 120Q5644 160 5615 177Q5587 194 5545 201Q5503 209 5461 218Q5420 227 5391 251Q5363 275 5363 326Q5363 394 5412 423Q5461 453 5519 453Q5565 453 5605 440Q5646 427 5671 412L5681 310L5635 304L5623 379Q5602 390 5579 397Q5556 404 5526 404Q5479 404 5450 387Q5421 370 5421 332Q5421 294 5449 278Q5477 263 5519 256Q5561 249 5602 239Q5644 229 5672 204Q5700 179 5700 126ZM6264 302L6280 401Q6309 422 6346 437Q6383 453 6445 453Q6589 453 6589 304L6589 112Q6589 76 6611 53Q6633 31 6671 31Q6719 31 6745 66Q6772 102 6783 154Q6794 207 6794 258Q6794 395 6739 471Q6685 548 6604 579Q6524 610 6447 610Q6337 610 6252 560Q6167 510 6119 422Q6071 335 6071 223Q6071 104 6123 18Q6176 -67 6261 -113Q6347 -158 6447 -158Q6577 -158 6669 -94L6689 -130Q6639 -163 6575 -183Q6511 -202 6441 -202Q6324 -202 6229 -148Q6135 -93 6079 2Q6024 98 6024 220Q6024 339 6078 437Q6132 536 6227 595Q6322 654 6445 654Q6531 654 6623 618Q6715 583 6778 499Q6842 416 6842 271Q6842 208 6825 143Q6809 78 6769 34Q6729 -10 6660 -10Q6607 -10 6576 17Q6546 44 6537 88Q6517 50 6477 20Q6437 -10 6382 -10Q6338 -10 6292 16Q6246 43 6246 114Q6246 170 6277 198Q6309 227 6357 237Q6405 247 6454 247Q6474 247 6495 246Q6516 245 6534 244L6534 294Q6534 343 6511 376Q6489 409 6432 409Q6371 409 6323 376L6305 297L6264 302ZM6534 169L6534 208Q6515 210 6493 211Q6472 212 6450 212Q6395 212 6349 195Q6304 178 6304 120Q6304 72 6334 53Q6365 35 6397 35Q6447 35 6490 73Q6534 111 6534 169ZM7683 182Q7683 105 7627 52Q7572 0 7465 0L7171 0L7171 51L7256 51L7256 599L7171 599L7171 650L7460 650Q7561 650 7608 607Q7655 564 7655 493Q7655 440 7624 401Q7593 362 7545 352L7545 348Q7616 337 7649 290Q7683 244 7683 182ZM7594 481Q7594 547 7558 573Q7522 599 7454 599L7313 599L7313 361L7452 361Q7510 361 7552 391Q7594 421 7594 481ZM7622 185Q7622 243 7588 278Q7554 313 7485 313L7313 313L7313 51L7458 51Q7531 51 7576 82Q7622 114 7622 185ZM8108 135L8154 124Q8144 68 8098 29Q8052 -10 7974 -10Q7881 -10 7825 50Q7769 110 7769 216Q7769 320 7823 386Q7877 453 7968 453Q8059 453 8104 393Q8150 334 8150 258Q8150 236 8145 208L7827 208Q7829 128 7868 83Q7907 39 7978 39Q8083 39 8108 135ZM7828 254L8092 254Q8097 307 8066 355Q8035 404 7965 404Q7898 404 7866 359Q7835 314 7828 254ZM8583 126Q8583 64 8530 27Q8478 -10 8401 -10Q8354 -10 8308 3Q8263 17 8239 34L8251 128L8296 124L8292 64Q8339 39 8399 39Q8448 39 8487 58Q8527 78 8527 120Q8527 160 8498 177Q8470 194 8428 201Q8386 209 8344 218Q8303 227 8274 251Q8246 275 8246 326Q8246 394 8295 423Q8344 453 8402 453Q8448 453 8488 440Q8529 427 8554 412L8564 310L8518 304L8506 379Q8485 390 8462 397Q8439 404 8409 404Q8362 404 8333 387Q8304 370 8304 332Q8304 294 8332 278Q8360 263 8402 256Q8444 249 8485 239Q8527 229 8555 204Q8583 179 8583 126ZM8939 129L8982 115Q8962 -10 8847 -10Q8782 -10 8749 28Q8717 66 8717 130L8717 397L8644 397L8644 444L8717 444L8717 588L8772 588L8772 444L8949 444L8949 397L8772 397L8772 136Q8772 92 8790 65Q8808 39 8853 39Q8882 39 8905 56Q8928 74 8939 129ZM9830 51L9830 0L9710 0L9567 279L9414 279L9414 51L9506 51L9506 0L9271 0L9271 51L9356 51L9356 599L9271 599L9271 650L9548 650Q9669 650 9718 596Q9767 543 9767 469Q9767 407 9731 356Q9696 306 9623 289L9747 51L9830 51ZM9707 467Q9707 534 9668 566Q9629 599 9543 599L9414 599L9414 327L9546 327Q9632 327 9669 364Q9707 402 9707 467ZM9908 310L9924 409Q9952 432 9991 442Q10031 453 10071 453Q10225 453 10225 304L10225 88Q10225 37 10264 37Q10284 37 10297 44L10298 4Q10276 -10 10246 -10Q10170 -10 10170 80L10170 82Q10149 46 10109 18Q10070 -10 10017 -10Q9973 -10 9927 16Q9882 43 9882 114Q9882 198 9949 224Q10016 251 10090 251Q10111 251 10131 249Q10152 248 10170 247L10170 294Q10170 345 10146 374Q10123 404 10062 404Q10012 404 9972 384L9954 304L9908 310ZM10170 163L10170 204Q10151 206 10129 207Q10107 209 10083 209Q10029 209 9984 192Q9940 176 9940 120Q9940 72 9971 55Q10002 39 10031 39Q10081 39 10124 73Q10167 108 10170 163ZM10629 129L10672 115Q10652 -10 10537 -10Q10472 -10 10439 28Q10407 66 10407 130L10407 397L10334 397L10334 444L10407 444L10407 588L10462 588L10462 444L10639 444L10639 397L10462 397L10462 136Q10462 92 10480 65Q10498 39 10543 39Q10572 39 10595 56Q10618 74 10629 129ZM11061 135L11107 124Q11097 68 11051 29Q11005 -10 10927 -10Q10834 -10 10778 50Q10722 110 10722 216Q10722 320 10776 386Q10830 453 10921 453Q11012 453 11057 393Q11103 334 11103 258Q11103 236 11098 208L10780 208Q10782 128 10821 83Q10860 39 10931 39Q11036 39 11061 135ZM10781 254L11045 254Q11050 307 11019 355Q10988 404 10918 404Q10851 404 10819 359Q10788 314 10781 254Z" style="" fill="#173753"></path></g></g></g></svg>